<?xml version="1.0" standalone="no"?>
<!DOCTYPE svg PUBLIC "-//W3C//DTD SVG 20010904//EN"
 "http://www.w3.org/TR/2001/REC-SVG-20010904/DTD/svg10.dtd">
<svg version="1.0" xmlns="http://www.w3.org/2000/svg"
 width="512.000000pt" height="512.000000pt" viewBox="0 0 512.000000 512.000000"
 preserveAspectRatio="xMidYMid meet">

<g transform="translate(0.000000,512.000000) scale(0.100000,-0.100000)"
fill="#000000" stroke="none">
<path d="M1735 4525 c-225 -49 -419 -207 -515 -419 -63 -138 -63 -137 -67
-758 l-5 -568 -486 0 c-451 0 -490 -2 -527 -19 -177 -81 -177 -321 0 -402 37
-17 76 -19 527 -19 l486 0 5 -567 c4 -622 4 -621 67 -759 99 -220 309 -384
540 -424 46 -8 459 -10 1415 -8 l1350 3 80 27 c193 67 340 192 431 368 85 162
79 51 79 1580 0 1529 6 1418 -79 1580 -91 176 -238 301 -431 368 l-80 27
-1365 2 c-1099 1 -1377 -1 -1425 -12z m1245 -966 c53 -27 886 -866 905 -911
21 -51 19 -134 -4 -183 -13 -27 -162 -183 -452 -471 -466 -464 -460 -458 -561
-456 -150 3 -253 170 -189 307 12 25 101 122 240 260 122 121 221 223 221 227
0 5 -448 8 -995 8 l-995 0 0 220 0 220 995 0 c547 0 995 3 995 8 0 4 -99 106
-221 227 -139 138 -228 235 -240 260 -86 185 118 378 301 284z"/>
</g>
</svg>
